<svg width="240" height="240" viewBox="0 0 240 240" fill="none" xmlns="http://www.w3.org/2000/svg">
<path d="M0.505859 154.358V162.912H14.3717V199.892H23.6191V162.912H37.5445V154.358H0.505859Z" fill="white"/>
<path d="M54.6097 165.451C50.3345 165.171 45.7746 166.052 43.3102 170.051L42.7363 165.999H34.6475V199.892H43.635V184.009C43.635 181.736 44.0303 179.87 44.8207 178.41C46.9108 174.452 51.4589 174.017 55.6383 174.168V165.484C55.4218 165.484 55.0807 165.473 54.6097 165.451Z" fill="white"/>
<path d="M88.6816 175.676C87.3648 171.645 84.6196 168.409 80.7173 166.704C76.2147 164.677 69.1515 165.074 65.054 167.67C59.6606 170.926 57.1672 176.617 57.1926 183.108C57.1848 189.468 59.5137 195.137 64.897 198.221C69.0527 200.678 75.846 200.985 80.6848 199.219C85.1501 197.627 88.274 194.243 89.288 189.412H80.4304C78.9551 193.117 72.7333 193.395 69.7427 191.755C67.5123 190.522 66.3756 188.167 66.1152 185.679H89.2881C89.5613 184.532 89.6013 183.455 89.6075 182.267C89.6508 179.913 89.3421 177.716 88.6816 175.676ZM66.3101 179.376C66.5426 175.461 69.6434 172.596 73.7547 172.753C77.8399 172.569 80.9142 175.465 81.0097 179.376H66.3101Z" fill="white"/>
<path d="M123.517 173.236C122.727 170.854 121.422 168.956 119.603 167.54C114.928 164.059 105.555 164.796 101.595 169.921L101.146 165.999H92.7373V199.892H101.725V183.168C101.638 178.377 104.095 173.45 109.429 173.588C114.435 173.386 115.773 178.262 115.721 182.333C115.721 182.333 115.721 199.892 115.721 199.892H124.708V181.177C124.708 178.264 124.308 175.612 123.517 173.236Z" fill="white"/>
<path d="M152.997 154.358V169.151C148.72 164.261 139.629 164.577 134.768 167.67C129.645 170.943 127.654 176.73 127.643 182.913C127.656 188.835 129.523 194.652 134.351 197.993C139.386 201.468 148.929 201.385 153.127 196.1L153.252 199.892H161.985V154.358H152.997ZM152.099 187.415C150.764 190.467 148.226 192.294 144.654 192.238C140.89 192.366 137.891 190.105 137.047 186.547C135.668 180.845 137.485 173.428 144.654 173.653C152.194 173.37 154.509 181.535 152.099 187.415Z" fill="white"/>
<path d="M214.033 154.358V199.892H223.21V154.358H214.033Z" fill="white"/>
<path d="M200.925 199.892H210.812L193.286 154.353H183.021L165.3 199.892H175.186L178.515 190.689C184.708 192.184 191.413 192.186 197.607 190.683L200.925 199.892ZM181.33 182.802C181.33 182.802 181.331 182.799 181.331 182.799L188.153 164.133C188.153 164.133 194.846 182.79 194.846 182.79C189.892 183.644 186.941 183.75 181.33 182.802Z" fill="white"/>
<path d="M230.734 154.925H228.903V154.358H233.178V154.925H231.347V159.798H230.734L230.734 154.925Z" fill="white"/>
<path d="M234.298 154.358H234.918L236.897 157.327L238.875 154.358H239.495V159.798H238.882V155.391L236.904 158.306H236.873L234.895 155.399V159.798H234.298L234.298 154.358Z" fill="white"/>
<path d="M85.8688 73.2849C90.8239 78.3415 95.6512 84.6015 96.7734 91.2105C98.7932 79.882 114.033 64.4619 125.409 62.5086C114.108 60.677 98.5692 45.1305 96.7742 33.7832C94.7393 44.9793 79.3926 60.5381 68.1377 62.4921C74.6971 63.6231 80.8329 68.3642 85.8688 73.2849Z" fill="#D71920"/>
<path d="M176.085 40.8562C164.39 26.8844 142.649 31.1514 125.856 37.9807C152.506 29.5589 176.945 40.6405 164.193 72.318C157.875 87.8918 141.985 103.821 126.757 112.826C118.716 118.025 110.115 122.403 100.742 123.714C86.3225 125.693 77.6807 118.248 81.3485 103.371C82.2734 99.7378 83.9572 96.0705 85.6288 92.5024C82.8768 85.9708 76.9559 79.2887 70.6015 77.4321C67.1762 82.5858 64.684 87.2513 62.1483 94.4651C56.4097 109.969 58.2841 132.733 77.8932 137.659C113.778 144.809 162.323 106.664 176.14 74.8747C182.053 61.4773 182.476 49.0941 176.085 40.8562Z" fill="#D71920"/>
</svg>
