<svg width="240" height="240" viewBox="0 0 240 240" fill="none" xmlns="http://www.w3.org/2000/svg">
<g clip-path="url(#clip0_76_34)">
<path d="M-0.494141 155.358V163.912H13.3717V200.892H22.6191V163.912H36.5445V155.358H-0.494141Z" fill="black"/>
<path d="M53.6097 166.451C49.3345 166.171 44.7746 167.052 42.3102 171.051L41.7363 166.999H33.6475V200.892H42.635V185.009C42.635 182.736 43.0303 180.87 43.8207 179.41C45.9108 175.452 50.4589 175.017 54.6383 175.168V166.484C54.4218 166.484 54.0807 166.473 53.6097 166.451Z" fill="black"/>
<path d="M87.6816 176.676C86.3648 172.645 83.6196 169.409 79.7173 167.704C75.2147 165.677 68.1515 166.074 64.054 168.67C58.6606 171.926 56.1672 177.617 56.1926 184.108C56.1848 190.468 58.5137 196.137 63.897 199.221C68.0527 201.678 74.846 201.985 79.6848 200.219C84.1501 198.627 87.274 195.243 88.288 190.412H79.4304C77.9551 194.117 71.7333 194.395 68.7427 192.755C66.5123 191.522 65.3756 189.167 65.1152 186.679H88.2881C88.5613 185.532 88.6013 184.455 88.6075 183.267C88.6508 180.913 88.3421 178.716 87.6816 176.676ZM65.3101 180.376C65.5426 176.461 68.6434 173.596 72.7547 173.753C76.8399 173.569 79.9142 176.465 80.0097 180.376H65.3101Z" fill="black"/>
<path d="M122.517 174.236C121.727 171.854 120.422 169.956 118.603 168.54C113.928 165.059 104.555 165.796 100.595 170.921L100.146 166.999H91.7373V200.892H100.725V184.168C100.638 179.377 103.095 174.45 108.429 174.588C113.435 174.386 114.773 179.262 114.721 183.333C114.721 183.333 114.721 200.892 114.721 200.892H123.708V182.177C123.708 179.264 123.308 176.612 122.517 174.236Z" fill="black"/>
<path d="M151.997 155.358V170.151C147.72 165.261 138.629 165.577 133.768 168.67C128.645 171.943 126.654 177.73 126.643 183.913C126.656 189.835 128.523 195.652 133.351 198.993C138.386 202.468 147.929 202.385 152.127 197.1L152.252 200.892H160.985V155.358H151.997ZM151.099 188.415C149.764 191.467 147.226 193.294 143.654 193.238C139.89 193.366 136.891 191.105 136.047 187.547C134.668 181.845 136.485 174.428 143.654 174.653C151.194 174.37 153.509 182.535 151.099 188.415Z" fill="black"/>
<path d="M213.033 155.358V200.892H222.21V155.358H213.033Z" fill="black"/>
<path d="M199.925 200.892H209.812L192.286 155.353H182.021L164.3 200.892H174.186L177.515 191.689C183.708 193.184 190.413 193.186 196.607 191.683L199.925 200.892ZM180.33 183.802C180.33 183.802 180.331 183.799 180.331 183.799L187.153 165.133C187.153 165.133 193.846 183.79 193.846 183.79C188.892 184.644 185.941 184.75 180.33 183.802Z" fill="black"/>
<path d="M229.734 155.925H227.903V155.358H232.178V155.925H230.347V160.798H229.734L229.734 155.925Z" fill="black"/>
<path d="M233.298 155.358H233.918L235.897 158.327L237.875 155.358H238.495V160.798H237.882V156.391L235.904 159.306H235.873L233.895 156.399V160.798H233.298L233.298 155.358Z" fill="black"/>
<path d="M84.8688 74.2849C89.8239 79.3415 94.6512 85.6015 95.7734 92.2105C97.7932 80.882 113.033 65.4619 124.409 63.5086C113.108 61.677 97.5692 46.1305 95.7742 34.7832C93.7393 45.9793 78.3926 61.5381 67.1377 63.4921C73.6971 64.6231 79.8329 69.3642 84.8688 74.2849Z" fill="#D71920"/>
<path d="M175.085 41.8562C163.39 27.8844 141.649 32.1514 124.856 38.9807C151.506 30.5589 175.945 41.6405 163.193 73.318C156.875 88.8918 140.985 104.821 125.757 113.826C117.716 119.025 109.115 123.403 99.7424 124.714C85.3225 126.693 76.6807 119.248 80.3485 104.371C81.2734 100.738 82.9572 97.0705 84.6288 93.5024C81.8768 86.9708 75.9559 80.2887 69.6015 78.4321C66.1762 83.5858 63.684 88.2513 61.1483 95.4651C55.4097 110.969 57.2841 133.733 76.8932 138.659C112.778 145.809 161.323 107.664 175.14 75.8747C181.053 62.4773 181.476 50.0941 175.085 41.8562Z" fill="#D71920"/>
</g>
<defs>
<clipPath id="clip0_76_34">
<rect width="240" height="240" fill="white"/>
</clipPath>
</defs>
</svg>
